<?xml version="1.0" encoding="utf-8"?>
<!-- Generator: Adobe Illustrator 23.1.0, SVG Export Plug-In . SVG Version: 6.00 Build 0)  -->
<svg version="1.1" id="圖層_1" xmlns="http://www.w3.org/2000/svg" xmlns:xlink="http://www.w3.org/1999/xlink" x="0px" y="0px"
	 viewBox="0 0 841.9 393" style="enable-background:new 0 0 841.9 393;" xml:space="preserve">
<style type="text/css">
	.st0{fill-rule:evenodd;clip-rule:evenodd;fill:#5A4620;stroke:#FDF7DD;stroke-width:1.5;stroke-miterlimit:10;}
	.st1{fill:#5A4620;stroke:#FDF7DD;stroke-width:0.5;stroke-miterlimit:10;}
</style>
<g>
	<path class="st0" d="M703.4,81.4c23.5,0,47,0,70.5,0c5,0,11.3-0.7,11.5,6.2c0.3,7.6-6.7,7-11.8,7.1c-8.9,0.2-17.8-0.1-26.7,0.1
		c-10,0.3-12.8,4.2-9.1,13.6c5,12.9,10.7,25.6,16.3,38.3c3.1,7.2,8.2,8.6,14.3,3.1c5.7-5,12.3-8.3,19.9-9.4c2.1-0.3,4.5-0.9,5.7,1.4
		c1.3,2.5-0.8,3.9-2.2,5.4c-5.8,5.6-11.5,11.6-17.6,17.1c-6.5,5.9-7.3,12.3-3.9,20c8.3,19,16.2,38.1,24,57.1c1.3,3.1,5.4,7.2,0,10
		c-4.3,2.2-8.6,0-11.4-3.4c-2.6-3.3-4.6-7.2-6.2-11.3c-18.5-43.4-37-86.9-55.3-130.4c-3-7.3-6.9-11.9-15.7-11.7
		c-11.4,0.3-14.3,3.9-10,14.5c8.1,20.1,16.9,40,24.8,60.2c7.7,19.4,18.2,37.8,21.7,58.8c3.4,20.2-2.1,27.3-22.3,27.3
		c-11,0-22.1,0-33.1,0c-5.3-0.2-10.7-1.1-10.8-7.7c-0.2-7.4,6-6.6,10.9-6.6c9.6-0.2,19.2,0,28.8-0.3c8.7-0.3,13.6-4.5,11.5-13.8
		c-3.2-13.5-8.6-26.3-15-38.4c-4.2-8.2-10.5-4.7-16.2-0.5c-22.2,16.8-44.3,33.4-66.7,49.9c-2.9,2-6.4,7.2-9.8,4.4
		c-3.9-3.5-0.6-8.6,1.4-12.7c2.4-4.7,6.5-7.5,10.5-10.5c20.5-15.4,40.9-30.9,61.6-46.1c6.6-4.9,9.1-10.2,6-18.2
		c-4.7-11.6-9.8-13.3-20.1-5.8c-15.8,11.4-31.5,23.2-47.4,34.6c-2,1.6-4.1,4.9-7.2,2.1c-2.3-2.1-0.7-4.7-0.2-7.1
		c1.4-6.7,6-11.1,11.3-14.9c14.2-10.2,28.2-20.7,42.3-30.9c5.5-3.9,8.2-8.6,5.8-15.5c-3.5-9.8-9.1-11.9-17.8-5.8
		c-9.7,6.9-19.4,13.3-31.6,14.4c-2.4,0.3-5.5,1.5-6.6-1.4c-1.3-3,2.1-4,3.9-5.4c5.6-4.3,11.4-8.4,17.1-12.8c2.3-1.7,4.4-3.9,3.5-7.2
		c-1-3.9-4.1-4.4-7.5-4.4c-4.6,0-9.3,0-13.9-0.1c-4.5-0.1-9.4-1.3-9.5-6.4c-0.2-5.8,4.7-6.9,9.8-6.9C655,81.5,679.2,81.4,703.4,81.4
		z"/>
	<path class="st0" d="M193.8,40.6c6.4,0,12.7,0,19.1,0c16.9,0.1,20.1,4.3,15.2,21C221.5,84,215.4,106.7,208,129
		c-3.6,10.8-2.5,19.6,3.1,29.3c15.1,26.2,29.3,52.8,43.8,79.5c1.7,3.4,6.1,7.5,1.7,11.3c-4,3.3-8.6,0-12.7-2.4
		c-3.6-2.3-5.5-6.4-7.5-10.2c-11.1-20.2-22.1-40.6-33.4-60.8c-6.1-10.8-11.1-10.9-17.7-0.8c-13.5,20.9-27,41.9-40.3,62.9
		c-4.1,6.3-9.1,11-16.8,12.1c-5.5,0.8-7.5-1.4-5-6.6c0.9-2.2,2.5-4.4,3.9-6.4c11.1-17.4,21-35.9,33.7-51.9c27-34,37-74.8,48.6-115
		c2.8-10.1,0-13.9-10.8-13.8c-40,0.4-30.9-5.5-45.2,30.4c-3.7,9.6-7.2,19.3-10.8,29c-1.6,3.9-3.1,8.1-6.9,10.5
		c-3.3,2-6.6,4.5-10.8,1.6c-4.2-3.1-1.4-6.5-0.3-9.5c6.9-18.3,14-36.6,21-54.8c7.2-19,12.7-22.8,33.2-22.8
		C183.7,40.6,188.9,40.6,193.8,40.6z"/>
	<path class="st0" d="M61.3,36.3c8.4,0,16.9,0,25.5,0c4.9,0,8.6,1.8,9.1,7.1c0.3,6-3.8,7.8-8.8,8.5c-17.6,2.3-17.6,2.3-17.6,19.7
		c0,4.3,0.3,8.6,0,12.8c-0.8,11.1,0,20.3,14.9,19.2c4.7-0.3,8.3,3.1,8,8.3c-0.3,5.2-4.1,7.4-8.9,7.2c-11.6-0.6-14.6,5.5-14.1,16
		c0.6,12.7,0,25.7,0.1,38.4c0.2,8.8,4.4,11.3,12.7,8.6c4.9-1.4,11.9-7.2,14.6,0.8c2.2,7-4.1,12.2-11,14.7
		c-16.6,6.1-33.4,12.2-50,18.2c-3.3,1.1-7.1,3.3-9.6-0.6c-2.5-3.8-0.5-7.5,2-10.8c3.6-4.6,9-5.8,14-7.5c7.7-2.7,11.4-7.7,11.4-16
		c0-16.3,0-32.7,0-49.1c0-8.2-3.8-12.7-12.2-12.6c-5.8,0.1-11.6-0.5-11.8-7.7c0-7.2,5.8-8.4,11.5-8.3c9.2,0.2,12.5-4.7,12.5-13.3
		c0-8.6,0-17.1,0-25.7c0-8.2-3.9-12.7-12.4-12.4c-1.9,0-3.6,0-5.3-0.1c-5-0.5-9.6-1.8-9.6-7.9c0.2-5.8,4.4-7.7,9.6-7.7
		C44.2,36.3,52.8,36.3,61.3,36.3z"/>
	<path class="st0" d="M495.7,179.3c0-21.3,0.2-42.7,0-64.1c0-12.6-3-15.5-16-15.5c-25.2-0.2-50.5-0.1-75.7-0.1
		c-5.8,0-12.7,0.4-12.2-7.9c0.3-7.7,7-6.6,12.2-6.6c38.1,0,76.2,0,114.3,0c4.9,0,10.8-0.8,11.6,6.1c1,7.6-4.5,8.1-10.3,8.7
		c-8.6,0.9-9.1,7.6-9.1,14.3c0.2,42.4,0.2,84.7,0,126.9c0,6.3,3.3,16-6.9,16.3c-11.3,0.3-7.7-9.9-7.8-16.3
		C495.4,220.7,495.7,200,495.7,179.3z"/>
	<path class="st0" d="M343,38.7c5.8,0,11.4-0.1,17.1,0c6.9,0.1,13,0.6,15.5-8.8c1.7-6.4,10.5-6.1,12.7,0.5c2.5,7.7,7.2,8.4,13.8,8.3
		c14.9-0.3,29.8-0.2,44.8,0c5.8,0.1,10.7-0.6,12.4-7.3c0.8-3.5,2.8-5.6,6.6-5.7c4.4-0.2,6.6,2.6,7.5,6.2c1.4,6,5.3,6.8,10.4,6.8
		c13.9-0.1,27.7,0,41.6-0.1c5.4,0,10.8,0.6,11.2,7c0.3,7.2-5.4,7-10.5,7c-13.2-0.1-26.5,0.1-39.7-0.1c-6.5,0-12,0.8-13.5,8.7
		c-0.6,3.7-3.4,5.4-7,5.1c-3.6-0.1-5.7-2.2-6.6-5.8c-1.4-6.4-6.1-8-12.1-8c-15.2,0.1-30.5,0.2-45.9,0c-6.4,0-11.3,1.5-12.7,8.6
		c-0.6,3.8-3.6,5.2-7,5.2c-3.6,0-6.3-2.2-6.9-5.7c-1.4-7.6-6.9-8.1-12.9-8.1c-13.5,0-27.1-0.1-40.6,0.1c-5,0-10.2-0.4-10.3-6.5
		c0-6.1,5-7.7,10.7-7.6C328.6,38.8,335.8,38.7,343,38.7z"/>
	<path class="st0" d="M648.4,41.2c12.1,0,24.2-0.2,36.3,0c6.6,0.2,11.2-1.8,11.9-9.1c0.4-4.6,2.6-7.5,7.3-7.3
		c4.3,0.1,6.3,3.5,6.4,7.2c0.5,8.5,6.1,9.1,12.7,9.1c23.5,0,46.9-0.1,70.4,0c17.8,0.1,25,9,22.3,26.7c-0.7,4.5-3.1,7.6-7.4,7.5
		c-3.8-0.1-6.5-3.2-6.3-7.3c0.8-12.4-6.8-13.5-16.4-13.5c-54.4,0.2-108.8,0.2-163.2,0c-9.9-0.1-17.1,1.5-16.3,13.7
		c0.3,4.1-2.5,7-6.4,7.1c-4.1,0.1-6.1-3.1-7.1-6.9c-3.9-16.2,4.8-27.1,21.7-27.3C625.7,41.2,637,41.2,648.4,41.2z"/>
	<path class="st0" d="M338,203c0-14.9,0-29.9,0-44.9c0-3.6,0-7.3-4.1-8.9c-3.9-1.4-5.5,1.7-7.7,4.2c-1.2,1.6-2.8,3.3-4.5,4.4
		c-3.8,2-8,5.6-11.8,2.5c-4.7-3.9,0.5-7.6,2.5-10.8c10.8-18.5,21.8-36.7,32.8-54.9c3.4-5.8,7.5-10.4,14.6-11.3
		c2-0.3,4.3-0.4,5.9,1.5c1.7,2.2,0,4.3-1.1,5.7c-13.2,15.1-12.2,33.2-12.1,51.4c0.5,32.4,0.2,64.8,0.2,97.1c0,2.5,0,5,0,7.5
		c-0.2,5.5,0,11.6-7.7,11.3c-7.1-0.3-6.9-5.8-6.9-11C338,232,338,217.4,338,203z"/>
	<path class="st0" d="M389.4,165.7c0-34.3,1-35.3,35.3-35.3c32.3,0,33.7,1.5,33.7,33.6c0,6.7,0.3,13.5-0.1,20.2
		c-0.8,11.9-6.4,17.6-18.1,17.9c-10.7,0.3-21.3,0.3-32,0c-12.7-0.3-18.5-6.4-18.6-19.3C389.4,177.1,389.4,171.4,389.4,165.7z
		 M403.2,165.8c0,2.5,0,5,0,7.4c0.2,13.8,1.6,15.4,15.4,15.4c26.3,0.3,26.3,0.3,26.2-26.2c0-2,0-4.2,0-6.4c-0.3-6.4-3-12.1-9.7-11.4
		c-10.6,1.1-23.1-6.3-31.2,6.3c-0.9,1.3-0.5,3.4-0.6,5.2C403.2,159.4,403.2,162.7,403.2,165.8z"/>
</g>
<g>
	<path class="st1" d="M46.3,346.8c0,5.3-1.4,9.7-4.1,13c-2.8,3.3-6.9,5.8-12.4,7.5L28,364c1.4-0.8,2.5-1.7,3.6-2.8
		c0.9-1.1,1.7-2.2,2.2-3.3s0.8-2.5,1.1-3.9c0.3-1.4,0.3-2.8,0.3-4.2V298h11L46.3,346.8L46.3,346.8z"/>
	<path class="st1" d="M98.2,350.7h-11V298h11V350.7z"/>
	<path class="st1" d="M185.7,332.2c0,2.5-0.6,5-1.6,7.5c-1.1,2.2-2.5,4.2-4.7,6.1c-2,1.7-4.7,3.1-7.7,4.1c-3.1,1.1-6.6,1.4-10.8,1.4
		c-3.3,0-6.4-0.3-8.9-0.9c-2.7-0.6-5.2-1.7-6.9-3.3c-1.9-1.4-3.5-3.3-4.6-5.6c-0.9-2.5-1.4-5.2-1.4-8.8V298h11v35.9
		c0,2.7,0.3,4.7,0.8,6.3c0.3,1.4,1.1,2.8,2.2,3.6c0.9,0.8,2.2,1.4,3.6,1.4c1.4,0.3,3.1,0.5,5,0.5c2.4,0,4.4-0.3,6.1-0.8
		c1.7-0.3,3-1.1,4.2-1.7c1.3-0.8,1.9-1.9,2.2-3.6s0.5-3.6,0.5-6V298h11.1L185.7,332.2L185.7,332.2z"/>
	<path class="st1" d="M262,350.7V327h-24.6v23.7h-11V298h11v23.1H262V298h11.3v52.7L262,350.7L262,350.7z"/>
	<path class="st1" d="M366.5,324.2c0,4.1-0.7,8-1.8,11.3c-1.1,3.3-2.8,6.1-5,8.6c-2.4,2.3-5.2,4.2-8.6,5.5
		c-3.5,1.1-7.4,1.7-12.1,1.7c-4.7,0-8.6-0.6-11.9-1.9c-3.5-1.1-6.1-3.1-8.2-5.5c-2.2-2.3-3.8-5-4.7-8.6c-1.1-3.3-1.6-7-1.6-11.1
		s0.5-7.7,1.6-11c1.1-3.3,2.5-6.1,4.7-8.5c2.2-2.2,5-3.9,8.3-5.3c3.3-1.1,7.4-1.9,11.9-1.9c4.7,0,8.7,0.8,12.1,1.9
		c3.3,1.3,6.3,3,8.5,5.3c2.2,2.4,3.9,5.2,5,8.5C365.8,316.5,366.5,320.1,366.5,324.2z M354.7,324.2c0-3.3-0.3-6.1-0.9-8.6
		c-0.6-2.5-1.6-4.7-2.8-6.6c-1.4-1.7-3-3-5-3.9c-2-1.1-4.4-1.4-7-1.4c-2.4,0-4.6,0.3-6.8,0.6c-2,0.5-3.6,1.1-4.8,2.2
		c-1.3,0.8-2.1,2.8-2.7,5.6c-0.5,3-0.8,7.1-0.8,12.1c0,3.1,0.3,6.1,0.8,8.6c0.5,2.5,1.3,4.7,2.5,6.6c1.1,1.9,2.5,3.3,4.5,4.4
		c1.9,0.9,4.4,1.4,7.2,1.4c3,0,5.5-0.3,7.4-0.8c1.8-0.3,3.4-1.1,4.8-2c0.6-0.3,1.1-1.1,1.6-2.2c0.5-1.1,0.8-2.5,1.1-4.2
		c0.3-1.6,0.5-3.6,0.6-5.5C354.7,328.4,354.7,326.4,354.7,324.2z"/>
	<path class="st1" d="M486.1,350.7V327h-24.6v23.7h-11V298h11v23.1h24.6V298h11.1v52.7L486.1,350.7L486.1,350.7z"/>
	<path class="st1" d="M590.5,324.2c0,4.1-0.6,8-1.7,11.3s-2.9,6.1-5.2,8.6c-2.3,2.3-5.2,4.2-8.6,5.5c-3.4,1.1-7.4,1.7-12,1.7
		c-4.7,0-8.7-0.6-12.1-1.9c-3.3-1.1-6.1-3.1-8.3-5.5c-2.1-2.3-3.6-5-4.7-8.6c-1-3.3-1.5-7-1.5-11.1s0.5-7.7,1.5-11
		c1.1-3.3,2.7-6.1,4.9-8.5c2.1-2.2,4.9-3.9,8.3-5.3c3.4-1.1,7.3-1.9,11.9-1.9c4.6,0,8.6,0.8,11.9,1.9c3.5,1.3,6.3,3,8.5,5.3
		c2.3,2.4,4,5.2,5.2,8.5C589.9,316.5,590.5,320.1,590.5,324.2z M578.8,324.2c0-3.3-0.3-6.1-0.9-8.6s-1.5-4.7-2.8-6.6
		c-1.2-1.7-2.8-3-4.8-3.9c-2-1.1-4.3-1.4-7-1.4c-2.5,0-4.7,0.3-6.7,0.6c-2.1,0.5-3.8,1.1-4.9,2.2c-1.2,0.8-2.1,2.8-2.7,5.6
		c-0.5,3-0.8,7.1-0.8,12.1c0,3.1,0.2,6.1,0.7,8.6c0.5,2.5,1.4,4.7,2.5,6.6s2.7,3.3,4.7,4.4c1.9,0.9,4.2,1.4,7.1,1.4
		c2.8,0,5.3-0.3,7.2-0.8c1.9-0.3,3.5-1.1,4.8-2c0.7-0.3,1.3-1.1,1.6-2.2c0.5-1.1,0.8-2.5,1.2-4.2c0.3-1.6,0.5-3.6,0.7-5.5
		C578.7,328.4,578.8,326.4,578.8,324.2z"/>
	<path class="st1" d="M676.3,332.2c0,2.5-0.5,5-1.6,7.5c-1.1,2.2-2.6,4.2-4.7,6.1c-2.1,1.7-4.7,3.1-7.7,4.1
		c-3.1,1.1-6.6,1.4-10.7,1.4c-3.3,0-6.4-0.3-9-0.9c-2.7-0.6-5-1.7-7-3.3c-1.9-1.4-3.4-3.3-4.4-5.6c-1-2.5-1.5-5.2-1.5-8.8V298h11
		v35.9c0,2.7,0.2,4.7,0.7,6.3c0.5,1.4,1.3,2.8,2.2,3.6c1,0.8,2.3,1.4,3.8,1.4c1.5,0.3,3.1,0.5,5,0.5c2.4,0,4.4-0.3,6-0.8
		c1.7-0.3,3-1.1,4.2-1.7c1.2-0.8,1.9-1.9,2.2-3.6c0.3-1.6,0.5-3.6,0.5-6V298h11L676.3,332.2L676.3,332.2z"/>
	<path class="st1" d="M749.8,335.3c0,1.9-0.5,3.9-1.5,5.8c-1,1.9-2.4,3.6-4.3,5.2c-1.9,1.4-4.1,2.8-6.7,3.6
		c-2.6,1.1-5.6,1.4-8.8,1.4c-1.8,0-3.4,0-4.8-0.3c-1.5,0-2.9-0.3-4.2-0.6c-1.3-0.5-2.6-0.8-3.8-1.3c-1.2-0.3-2.4-0.9-3.6-1.4l2.7-8
		c0.8,0.5,1.8,1.1,3.1,1.6c1.3,0.6,2.7,1.1,4.3,1.6c1.5,0.5,3.1,0.9,4.6,1.1c1.5,0.5,3,0.5,4.3,0.5c1.4,0,2.6,0,3.6-0.3
		c0.9,0,1.8-0.3,2.5-0.6c0.8-0.5,1.5-1.1,2-2.4c0.5-1.1,0.8-2.8,0.8-4.7c0-1.7-0.6-3.1-1.9-4.2c-1.3-1.1-2.9-1.9-4.8-2.8
		c-1.9-0.8-4-1.6-6.2-2.5c-2.2-0.8-4.3-1.7-6.3-3c-1.9-1.1-3.5-2.8-4.8-4.7c-1.3-1.9-1.9-4.4-1.9-7.7c0-1.4,0.4-3.1,1.3-4.7
		c0.9-1.7,2.1-3.3,3.7-4.7c1.6-1.4,3.8-2.5,6.2-3.6c2.4-0.9,5.2-1.4,8.3-1.4c2.5,0,4.8,0.2,7.2,0.5c2.3,0.1,4.5,0.5,6.7,0.9
		l-1.8,7.8c-1-0.3-2.1-0.6-3.4-0.9c-1.2-0.3-2.5-0.6-3.9-0.8c-1.3-0.3-2.5-0.5-3.8-0.5c-1.3-0.2-2.3-0.3-3.3-0.3c-1.1,0-2.1,0-3,0.2
		c-0.9,0-1.7,0.3-2.5,0.6c-0.7,0.5-1.2,1.1-1.5,2.1c-0.3,0.9-0.4,2-0.4,3.3c0,1.2,0.3,2.3,1.1,3.3c0.7,0.8,1.7,1.6,2.9,2.2
		c1.2,0.6,2.6,1.4,4.1,1.9c1.6,0.6,3.2,1.1,4.8,1.7c1.6,0.6,3.2,1.4,4.8,2.2c1.6,0.8,3,1.7,4.2,3c1.2,1.1,2.2,2.5,3,4.4
		C749.3,330.8,749.8,332.8,749.8,335.3z"/>
	<path class="st1" d="M819.6,350.7h-32.7V298h31.6l-0.5,5.5l-20,0.3v17.1l18.8,0.1l-0.5,4.9l-18.3,0.3v19l22.2,0.3L819.6,350.7z"/>
</g>
</svg>
