<?xml version="1.0" encoding="utf-8"?>
<!-- Generator: Adobe Illustrator 23.1.0, SVG Export Plug-In . SVG Version: 6.00 Build 0)  -->
<svg version="1.1" id="圖層_1" xmlns="http://www.w3.org/2000/svg" xmlns:xlink="http://www.w3.org/1999/xlink" x="0px" y="0px"
	 viewBox="0 0 841.89 393" style="enable-background:new 0 0 841.89 393;" xml:space="preserve">
<style type="text/css">
	.st0{fill-rule:evenodd;clip-rule:evenodd;fill:#FDF7DD;stroke:#FDF7DD;stroke-width:1.5;stroke-miterlimit:10;}
	.st1{fill:#FDF7DD;stroke:#FDF7DD;stroke-width:0.5;stroke-miterlimit:10;}
</style>
<g>
	<path class="st0" d="M703.39,81.38c23.52,0,47.02,0,70.52,0c4.99,0,11.32-0.69,11.53,6.17c0.25,7.62-6.66,6.97-11.84,7.1
		c-8.92,0.2-17.85-0.12-26.72,0.13c-9.98,0.27-12.85,4.23-9.12,13.62c5.04,12.89,10.65,25.6,16.25,38.29
		c3.14,7.19,8.21,8.56,14.28,3.06c5.72-5.02,12.26-8.32,19.92-9.38c2.08-0.28,4.46-0.9,5.67,1.37c1.35,2.47-0.76,3.89-2.24,5.45
		c-5.81,5.63-11.51,11.64-17.64,17.06c-6.54,5.9-7.28,12.26-3.89,20.03c8.25,19,16.23,38.05,24.01,57.1
		c1.29,3.07,5.4,7.23-0.05,9.99c-4.26,2.19-8.61,0-11.39-3.37c-2.61-3.3-4.57-7.17-6.22-11.25
		c-18.51-43.38-37.03-86.86-55.29-130.45c-3.04-7.35-6.94-11.92-15.66-11.66c-11.37,0.31-14.32,3.89-9.98,14.52
		c8.12,20.14,16.87,40.02,24.85,60.16c7.7,19.36,18.15,37.84,21.71,58.83c3.4,20.17-2.13,27.31-22.34,27.32
		c-11.04,0.01-22.09,0.02-33.1-0.01c-5.27-0.21-10.7-1.09-10.8-7.7c-0.19-7.45,5.98-6.61,10.86-6.64
		c9.63-0.24,19.24,0.03,28.85-0.25c8.7-0.28,13.62-4.48,11.47-13.79c-3.15-13.53-8.62-26.26-14.96-38.44
		c-4.16-8.22-10.54-4.66-16.19-0.5c-22.16,16.79-44.34,33.38-66.74,49.92c-2.92,1.99-6.37,7.22-9.79,4.43
		c-3.94-3.53-0.61-8.56,1.39-12.69c2.36-4.66,6.51-7.46,10.48-10.49c20.51-15.43,40.89-30.91,61.58-46.09
		c6.64-4.93,9.13-10.23,5.97-18.23c-4.66-11.61-9.79-13.28-20.09-5.81c-15.82,11.37-31.52,23.18-47.43,34.55
		c-1.98,1.61-4.14,4.93-7.22,2.12c-2.25-2.13-0.71-4.66-0.23-7.11c1.43-6.69,6.05-11.05,11.31-14.91
		c14.16-10.22,28.15-20.68,42.35-30.85c5.5-3.94,8.17-8.63,5.85-15.52c-3.47-9.84-9.11-11.91-17.81-5.82
		c-9.67,6.89-19.36,13.32-31.57,14.38c-2.44,0.25-5.49,1.54-6.63-1.39c-1.31-3.03,2.12-4,3.92-5.42
		c5.63-4.29,11.39-8.44,17.11-12.81c2.26-1.74,4.38-3.86,3.54-7.17c-1.03-3.87-4.13-4.43-7.53-4.44c-4.61-0.01-9.26,0-13.92-0.13
		c-4.48-0.14-9.41-1.25-9.47-6.45c-0.19-5.84,4.66-6.92,9.82-6.88C654.97,81.5,679.21,81.38,703.39,81.38z"/>
	<path class="st0" d="M193.84,40.59c6.37,0,12.73-0.02,19.1,0c16.85,0.06,20.12,4.34,15.17,21.02
		c-6.62,22.43-12.71,45.09-20.15,67.39c-3.58,10.76-2.47,19.59,3.06,29.27c15.14,26.23,29.27,52.78,43.85,79.5
		c1.71,3.35,6.12,7.52,1.71,11.32c-3.96,3.34-8.61,0.02-12.69-2.45c-3.65-2.25-5.54-6.36-7.51-10.19
		c-11.1-20.18-22.1-40.59-33.39-60.75c-6.05-10.76-11.07-10.95-17.7-0.81c-13.54,20.95-27.04,41.94-40.31,62.94
		c-4.1,6.34-9.07,11.04-16.78,12.14c-5.52,0.82-7.46-1.43-5.04-6.65c0.87-2.22,2.51-4.37,3.88-6.35
		c11.07-17.39,20.99-35.86,33.71-51.9c27.04-33.98,36.96-74.81,48.57-114.99c2.81-10.11-0.01-13.89-10.78-13.75
		c-39.98,0.44-30.86-5.54-45.21,30.44c-3.66,9.59-7.22,19.31-10.82,28.96c-1.62,3.93-3.05,8.06-6.91,10.49
		c-3.29,1.95-6.62,4.54-10.76,1.56c-4.16-3.11-1.36-6.51-0.25-9.54c6.88-18.31,14.04-36.57,20.95-54.82
		c7.19-19.02,12.73-22.81,33.19-22.84C183.69,40.59,188.87,40.59,193.84,40.59z"/>
	<path class="st0" d="M61.3,36.34c8.36,0,16.92-0.01,25.47,0c4.92,0.04,8.56,1.79,9.06,7.08c0.31,6.03-3.81,7.79-8.83,8.53
		c-17.64,2.31-17.64,2.33-17.64,19.67c0,4.33,0.28,8.56-0.01,12.81c-0.83,11.1,0.01,20.26,14.94,19.22
		c4.65-0.29,8.26,3.13,7.97,8.27c-0.29,5.23-4.13,7.43-8.86,7.16c-11.59-0.56-14.62,5.52-14.08,16.01
		c0.57,12.73,0.02,25.66,0.05,38.4c0.22,8.81,4.39,11.29,12.67,8.57c4.95-1.42,11.91-7.19,14.62,0.76
		c2.24,6.97-4.14,12.18-11.03,14.68c-16.6,6.1-33.4,12.16-50,18.23c-3.3,1.13-7.14,3.32-9.63-0.57c-2.46-3.84-0.53-7.48,1.96-10.77
		c3.56-4.61,9.05-5.8,14.02-7.47c7.74-2.74,11.39-7.69,11.37-15.97c-0.04-16.31-0.02-32.69-0.01-49.14
		c0-8.19-3.83-12.67-12.18-12.58c-5.75,0.1-11.59-0.46-11.82-7.65c-0.03-7.15,5.81-8.41,11.54-8.25c9.18,0.16,12.5-4.68,12.47-13.25
		c-0.03-8.55,0-17.11-0.02-25.67C53.31,56.19,49.46,51.72,40.89,52c-1.89,0.03-3.58,0.05-5.27-0.06c-4.96-0.51-9.64-1.85-9.61-7.93
		c0.23-5.83,4.37-7.67,9.62-7.67C44.19,36.34,52.75,36.34,61.3,36.34z"/>
	<path class="st0" d="M495.68,179.28c-0.01-21.29,0.18-42.74-0.03-64.05c-0.02-12.59-3.05-15.49-15.98-15.51
		c-25.18-0.15-50.52-0.1-75.7-0.06c-5.81,0-12.66,0.39-12.16-7.91c0.29-7.72,6.95-6.62,12.18-6.63c38.1-0.02,76.19-0.02,114.28-0.01
		c4.93,0,10.79-0.81,11.64,6.1c1.05,7.56-4.45,8.06-10.25,8.66c-8.61,0.95-9.07,7.6-9.07,14.32c0.16,42.41,0.22,84.68-0.05,126.95
		c-0.01,6.28,3.27,15.96-6.89,16.26c-11.31,0.31-7.72-9.93-7.76-16.26C495.41,220.66,495.68,199.97,495.68,179.28z"/>
	<path class="st0" d="M342.97,38.66c5.77,0,11.35-0.1,17.11,0.04c6.9,0.1,12.99,0.63,15.47-8.78c1.67-6.42,10.5-6.13,12.68,0.5
		c2.46,7.67,7.2,8.41,13.81,8.31c14.91-0.25,29.84-0.23,44.78-0.01c5.8,0.08,10.74-0.58,12.38-7.31c0.83-3.45,2.77-5.56,6.64-5.68
		c4.44-0.21,6.65,2.58,7.45,6.19c1.36,5.97,5.26,6.8,10.4,6.78c13.87-0.14,27.71,0.03,41.65-0.1c5.36-0.04,10.77,0.56,11.16,7.02
		c0.34,7.15-5.41,7.04-10.53,7.01c-13.21-0.06-26.45,0.14-39.66-0.07c-6.45-0.03-11.96,0.85-13.54,8.69
		c-0.6,3.67-3.43,5.36-7.01,5.15c-3.58-0.09-5.74-2.15-6.56-5.85c-1.38-6.44-6.07-8.01-12.1-7.96c-15.23,0.13-30.49,0.17-45.86-0.04
		c-6.36-0.03-11.3,1.45-12.68,8.56c-0.6,3.84-3.61,5.25-6.96,5.23c-3.58-0.01-6.3-2.2-6.87-5.68c-1.37-7.6-6.89-8.06-12.94-8.06
		c-13.54,0.04-27.06-0.06-40.6,0.06c-4.97,0.03-10.23-0.43-10.25-6.45c-0.01-6.12,4.99-7.72,10.74-7.61
		C328.64,38.75,335.8,38.66,342.97,38.66z"/>
	<path class="st0" d="M648.44,41.22c12.07,0,24.19-0.16,36.29,0.04c6.6,0.18,11.2-1.82,11.87-9.06c0.36-4.6,2.56-7.53,7.27-7.32
		c4.31,0.11,6.26,3.49,6.44,7.23c0.46,8.55,6.14,9.14,12.68,9.14c23.45-0.04,46.92-0.06,70.4,0c17.78,0.07,25.03,8.97,22.27,26.67
		c-0.72,4.51-3.06,7.57-7.4,7.53c-3.84-0.12-6.52-3.18-6.26-7.29c0.83-12.37-6.78-13.52-16.44-13.45c-54.4,0.15-108.8,0.15-163.2,0
		c-9.9-0.1-17.11,1.45-16.28,13.7c0.27,4.08-2.55,7.02-6.41,7.06c-4.06,0.09-6.06-3.07-7.08-6.89
		c-3.89-16.18,4.76-27.12,21.72-27.32C625.7,41.18,637.05,41.23,648.44,41.22z"/>
	<path class="st0" d="M337.98,202.99c0-14.92,0-29.86,0-44.89c0-3.65,0.01-7.33-4.13-8.92c-3.89-1.41-5.54,1.69-7.7,4.17
		c-1.17,1.65-2.8,3.3-4.53,4.37c-3.76,1.96-7.96,5.57-11.77,2.53c-4.72-3.87,0.54-7.57,2.47-10.83
		c10.76-18.47,21.8-36.69,32.77-54.95c3.37-5.76,7.51-10.45,14.62-11.29c2.02-0.26,4.26-0.36,5.87,1.46
		c1.71,2.19,0.02,4.33-1.11,5.71c-13.21,15.06-12.17,33.16-12.11,51.4c0.5,32.38,0.22,64.82,0.22,97.14c0,2.48,0.01,4.97,0,7.46
		c-0.23,5.5,0.01,11.59-7.73,11.33c-7.12-0.26-6.89-5.82-6.89-11.03C337.99,232.03,337.99,217.41,337.98,202.99z"/>
	<path class="st0" d="M389.38,165.74c0-34.25,1.05-35.25,35.29-35.25c32.3,0,33.7,1.53,33.7,33.59c0,6.66,0.27,13.53-0.07,20.19
		c-0.75,11.88-6.35,17.63-18.15,17.91c-10.73,0.27-21.28,0.26-32.02,0.01c-12.7-0.27-18.49-6.36-18.59-19.34
		C389.35,177.08,389.38,171.42,389.38,165.74z M403.18,165.76c0,2.48,0,4.97,0,7.45c0.19,13.8,1.63,15.41,15.42,15.45
		c26.26,0.26,26.26,0.26,26.23-26.21c0-2.03,0.01-4.18-0.01-6.37c-0.25-6.38-2.98-12.15-9.72-11.36
		c-10.65,1.12-23.12-6.33-31.17,6.26c-0.86,1.25-0.53,3.44-0.59,5.16C403.17,159.39,403.2,162.65,403.18,165.76z"/>
</g>
<g>
	<path class="st1" d="M46.28,346.83c0,5.3-1.38,9.7-4.14,13.01c-2.75,3.3-6.89,5.79-12.39,7.46l-1.71-3.3
		c1.41-0.83,2.55-1.68,3.61-2.77c0.86-1.09,1.67-2.19,2.21-3.32c0.54-1.13,0.84-2.48,1.1-3.85c0.25-1.37,0.29-2.77,0.29-4.18v-51.85
		h11.04V346.83z"/>
	<path class="st1" d="M98.22,350.71H87.18v-52.68h11.04V350.71z"/>
	<path class="st1" d="M185.71,332.21c0,2.52-0.55,5.01-1.64,7.45c-1.09,2.24-2.52,4.2-4.69,6.09c-1.97,1.68-4.68,3.06-7.73,4.15
		c-3.05,1.08-6.64,1.42-10.75,1.42c-3.32,0-6.35-0.29-8.89-0.87c-2.74-0.58-5.18-1.67-6.91-3.27c-1.93-1.4-3.54-3.33-4.63-5.58
		c-0.88-2.45-1.42-5.24-1.42-8.78v-34.78h11.04v35.87c0,2.72,0.27,4.7,0.8,6.32c0.34,1.42,1.14,2.75,2.22,3.58
		c0.87,0.83,2.22,1.38,3.62,1.44c1.41,0.27,3.07,0.51,4.99,0.51c2.45,0,4.41-0.26,6.07-0.79c1.66-0.32,3.04-1.1,4.16-1.7
		c1.32-0.81,1.92-1.94,2.2-3.59c0.28-1.65,0.52-3.6,0.52-6.04v-35.6h11.05V332.21z"/>
	<path class="st1" d="M261.95,350.71V327h-24.57v23.72h-11.04v-52.68h11.04v23.15h24.57v-23.15h11.26v52.68H261.95z"/>
	<path class="st1" d="M366.48,324.23c0,4.14-0.7,7.97-1.83,11.29c-1.11,3.32-2.79,6.11-5.02,8.56c-2.43,2.25-5.22,4.16-8.61,5.51
		c-3.51,1.15-7.41,1.72-12.06,1.72c-4.69,0-8.59-0.58-11.93-1.93c-3.5-1.15-6.1-3.06-8.24-5.52c-2.19-2.25-3.83-5.04-4.7-8.57
		c-1.08-3.32-1.62-6.95-1.62-11.08s0.54-7.74,1.63-11.05c1.08-3.3,2.52-6.08,4.73-8.52c2.19-2.24,4.96-3.93,8.28-5.27
		c3.33-1.14,7.42-1.91,11.88-1.91c4.67,0,8.73,0.77,12.11,1.91c3.34,1.34,6.31,3.03,8.55,5.27c2.23,2.44,3.9,5.21,5.01,8.52
		C365.78,316.48,366.48,320.1,366.48,324.23z M354.71,324.23c0-3.28-0.29-6.07-0.85-8.57c-0.57-2.5-1.61-4.7-2.77-6.59
		c-1.35-1.68-3.01-3.05-4.95-3.91c-1.95-1.06-4.39-1.39-6.98-1.39c-2.43,0-4.64,0.26-6.8,0.6c-1.97,0.53-3.62,1.12-4.79,2.16
		c-1.29,0.84-2.13,2.77-2.69,5.58c-0.55,3.02-0.83,7.12-0.83,12.12c0,3.07,0.26,6.06,0.8,8.56c0.5,2.51,1.33,4.72,2.48,6.63
		c1.12,1.91,2.55,3.31,4.47,4.39c1.93,0.88,4.39,1.41,7.17,1.41c3.01,0,5.47-0.26,7.36-0.8c1.76-0.33,3.4-1.12,4.77-1.95
		c0.57-0.31,1.12-1.11,1.65-2.23c0.49-1.11,0.83-2.5,1.11-4.16c0.28-1.65,0.55-3.56,0.6-5.52
		C354.69,328.4,354.71,326.43,354.71,324.23z"/>
	<path class="st1" d="M486.1,350.71V327h-24.57v23.72h-11.04v-52.68h11.04v23.15h24.57v-23.15h11.06v52.68H486.1z"/>
	<path class="st1" d="M590.48,324.23c0,4.14-0.57,7.97-1.7,11.29c-1.13,3.32-2.94,6.11-5.19,8.56c-2.26,2.25-5.2,4.16-8.57,5.51
		c-3.44,1.15-7.44,1.72-11.95,1.72c-4.66,0-8.74-0.58-12.07-1.93c-3.32-1.15-6.08-3.06-8.25-5.52c-2.08-2.25-3.63-5.04-4.7-8.57
		c-1.01-3.32-1.45-6.95-1.45-11.08s0.49-7.74,1.47-11.05c1.07-3.3,2.71-6.08,4.89-8.52c2.14-2.24,4.93-3.93,8.27-5.27
		c3.36-1.14,7.27-1.91,11.89-1.91c4.57,0,8.59,0.77,11.94,1.91c3.49,1.34,6.32,3.03,8.55,5.27c2.29,2.44,4.05,5.21,5.18,8.52
		C589.91,316.48,590.48,320.1,590.48,324.23z M578.83,324.23c0-3.28-0.31-6.07-0.94-8.57c-0.63-2.5-1.52-4.7-2.84-6.59
		c-1.22-1.68-2.84-3.05-4.85-3.91c-2.04-1.06-4.32-1.39-7.05-1.39c-2.45,0-4.67,0.26-6.67,0.6c-2.14,0.53-3.78,1.12-4.93,2.16
		c-1.15,0.84-2.06,2.77-2.65,5.58c-0.54,3.02-0.83,7.12-0.83,12.12c0,3.07,0.2,6.06,0.73,8.56c0.53,2.51,1.36,4.72,2.48,6.63
		c1.12,1.91,2.74,3.31,4.67,4.39c1.91,0.88,4.21,1.41,7.14,1.41c2.85,0,5.3-0.26,7.22-0.8c1.91-0.33,3.53-1.12,4.75-1.95
		c0.73-0.31,1.26-1.11,1.64-2.23c0.51-1.11,0.83-2.5,1.17-4.16c0.31-1.65,0.5-3.56,0.71-5.52
		C578.66,328.4,578.83,326.43,578.83,324.23z"/>
	<path class="st1" d="M676.27,332.21c0,2.52-0.54,5.01-1.6,7.45c-1.08,2.24-2.64,4.2-4.7,6.09c-2.08,1.68-4.65,3.06-7.73,4.15
		c-3.06,1.08-6.64,1.42-10.72,1.42c-3.33,0-6.36-0.29-9.03-0.87c-2.67-0.58-5.04-1.67-6.96-3.27c-1.93-1.4-3.36-3.33-4.43-5.58
		c-1.01-2.45-1.47-5.24-1.47-8.78v-34.78h11.01v35.87c0,2.72,0.22,4.7,0.69,6.32c0.53,1.42,1.3,2.75,2.24,3.58
		c1.03,0.83,2.26,1.38,3.75,1.44c1.45,0.27,3.11,0.51,5.03,0.51c2.39,0,4.39-0.26,6.05-0.79c1.67-0.32,3.05-1.1,4.17-1.7
		c1.15-0.81,1.9-1.94,2.18-3.59c0.29-1.65,0.46-3.6,0.46-6.04v-35.6h11.05V332.21z"/>
	<path class="st1" d="M749.76,335.27c0,1.93-0.52,3.86-1.51,5.78c-0.97,1.93-2.41,3.6-4.27,5.23c-1.88,1.42-4.13,2.77-6.74,3.64
		c-2.63,1.06-5.61,1.4-8.84,1.4c-1.75,0-3.4-0.02-4.85-0.28c-1.46-0.05-2.88-0.32-4.16-0.61c-1.33-0.49-2.59-0.8-3.8-1.33
		c-1.17-0.33-2.38-0.88-3.59-1.43l2.74-7.95c0.79,0.53,1.85,1.08,3.12,1.64c1.3,0.56,2.71,1.1,4.28,1.64
		c1.48,0.54,3.06,0.85,4.6,1.14c1.54,0.49,2.95,0.53,4.26,0.53c1.43,0,2.62-0.02,3.57-0.27c0.91-0.05,1.75-0.31,2.51-0.59
		c0.82-0.49,1.47-1.1,1.98-2.43c0.5-1.13,0.76-2.77,0.76-4.7c0-1.69-0.64-3.08-1.93-4.18c-1.3-1.09-2.89-1.94-4.82-2.76
		c-1.91-0.82-4-1.63-6.22-2.45c-2.21-0.82-4.34-1.69-6.27-3.03c-1.93-1.14-3.5-2.77-4.78-4.71c-1.3-1.93-1.92-4.44-1.92-7.71
		c0-1.41,0.44-3.06,1.32-4.72c0.87-1.67,2.07-3.3,3.74-4.69c1.63-1.39,3.75-2.51,6.17-3.56c2.43-0.85,5.21-1.38,8.32-1.38
		c2.48,0,4.82,0.23,7.17,0.5c2.28,0.06,4.48,0.55,6.67,0.85l-1.76,7.75c-0.99-0.29-2.11-0.58-3.41-0.87
		c-1.22-0.28-2.52-0.56-3.86-0.82c-1.26-0.26-2.55-0.52-3.78-0.55c-1.25-0.24-2.33-0.26-3.28-0.26c-1.07,0-2.08,0.01-2.98,0.24
		c-0.93,0.03-1.74,0.3-2.48,0.62c-0.74,0.5-1.23,1.09-1.54,2.14c-0.32,0.86-0.43,1.96-0.43,3.32c0,1.17,0.35,2.27,1.12,3.31
		c0.72,0.84,1.71,1.65,2.93,2.24c1.23,0.58,2.63,1.35,4.14,1.9c1.56,0.56,3.17,1.12,4.81,1.69c1.63,0.57,3.19,1.37,4.75,2.2
		c1.58,0.82,2.95,1.7,4.16,3.03c1.22,1.13,2.18,2.53,2.95,4.41C749.35,330.83,749.76,332.8,749.76,335.27z"/>
	<path class="st1" d="M819.58,350.71h-32.72v-52.68h31.6l-0.55,5.48l-20.03,0.26v17.11l18.82,0.06l-0.51,4.93l-18.32,0.31v18.98
		l22.18,0.31L819.58,350.71z"/>
</g>
</svg>
